<svg fill="none" height="24" viewBox="0 0 24 24" width="24" xmlns="http://www.w3.org/2000/svg"><path d="m17.8076 3.1688c-.0437.0872-.1482.12445-.2373.08448-1.3246-.60225-2.9347-.80573-3.9929-.80573-3.80472 0-7.61034 1.85399-7.61034 4.90158 0 1.63416 1.22642 3.01667 3.01922 3.01667 1.98102 0 3.45922-1.44518 4.65382-2.76505 1.0691-1.1936 2.3274-2.51347 4.1193-2.51347 1.9501 0 3.3647 1.44522 3.3647 3.39368 0 3.07934-3.7111 6.53574-8.8368 6.53574-5.12564 0-8.8358-2.7342-8.8358-6.53574 0-3.55083 4.21381-6.75557 8.8367-6.75557 2.3592 0 4.1357.49416 5.443 1.20269.0864.04724.12.15352.0764.24163zm-5.5194-2.6688c-6.32114 0-11.47863 5.1532-11.47863 11.4691s5.15749 11.5318 11.47863 11.5318c6.3212 0 11.5414-5.1532 11.5414-11.5318 0-6.37858-5.1584-11.4691-11.5414-11.4691z" fill="#00b96d"/></svg>