<svg height="32" viewBox="0 0 32 32" width="32" xmlns="http://www.w3.org/2000/svg"><g fill="none" fill-rule="evenodd"><path d="m0 0h32v32h-32z" fill="#161618"/><path d="m23.449266 6.625c1.063553 0 1.925734.862181 1.925734 1.925734v15.027514c0 .992319-.804433 1.796752-1.796752 1.796752s-1.796752-.804433-1.796752-1.796752v-5.443447c0-.69787-.565735-1.263605-1.263605-1.263605-.469923 0-.90103.260774-1.119187.67699l-1.914582 3.65278c-.287857.549194-.856701.893285-1.476762.893285-.620186 0-1.189272-.343757-1.477864-.892706l-1.920635-3.653358c-.325815-.619753-1.092349-.858037-1.712102-.532221-.416824.219132-.677844.651246-.677844 1.122162v5.439917c0 .992432-.804525 1.796957-1.796957 1.796957s-1.796957-.804525-1.796957-1.796957v-15.014022c0-1.070892.868129-1.939021 1.939021-1.939021 1.19155 0 2.2841.663048 2.834195 1.720019l1.853305 3.561002c.791914 1.52161 2.667395 2.113146 4.189006 1.321232.563727-.293388 1.023888-.752641 1.318391-1.315787l1.872197-3.579996c.548578-1.048985 1.634383-1.706471 2.818151-1.706471zm-10.232469 16.113281c.72811 0 1.318359.59025 1.318359 1.318359 0 .72811-.59025 1.318359-1.318359 1.318359s-1.318359-.59025-1.318359-1.318359c0-.72811.59025-1.318359 1.318359-1.318359zm5.566406 0c.72811 0 1.318359.59025 1.318359 1.318359 0 .72811-.59025 1.318359-1.318359 1.318359s-1.318359-.59025-1.318359-1.318359c0-.72811.59025-1.318359 1.318359-1.318359z" fill="#15e6b7" fill-rule="nonzero"/></g></svg>